<svg xmlns="http://www.w3.org/2000/svg" width="256" height="256"><path fill="#1976D2" fill-opacity=".016" fill-rule="evenodd" d="M0 128.004v128.004l128.25-.254 128.25-.254.254-127.75L257.008 0H0zm.485.496c0 70.4.119 99.053.265 63.672s.146-92.98 0-128S.485 58.1.485 128.5"/><path fill="#1976D2" fill-opacity=".048" fill-rule="evenodd" d="M11 5.5V11H0v11h11v11H0v11h11v11H0v11h5.437c5.399 0 5.439.022 5.765 3.25.18 1.787-.021 4.375-.447 5.75-.712 2.298-1.179 2.472-5.765 2.153L0 76.807v5.596C0 87.91.046 88 2.895 88h2.896L4.21 93.898c-1.022 3.814-2.014 5.731-2.809 5.426-.956-.367-1.218 5.733-1.176 27.352.029 15.303.286 27.163.571 26.355.284-.808 1.33 1.442 2.325 5 2.07 7.402 2.157 8.013 1.129 7.851-3.694-.584-4.25.165-4.25 5.719v5.6l4.433-.352c4.108-.327 4.54-.128 5.896 2.716.805 1.687 1.233 4.276.951 5.752-.481 2.515-.85 2.683-5.897 2.683H0v11h11v11H0v11h11v11H0v11h11v11H5.5c-3.025 0-5.5.45-5.5 1s2.475 1 5.5 1 5.5-.45 5.5-1 2.475-1 5.5-1 5.5.45 5.5 1 2.475 1 5.5 1 5.5-.45 5.5-1 2.475-1 5.5-1 5.5.45 5.5 1 2.475 1 5.5 1 5.5-.45 5.5-1 2.475-1 5.5-1 5.5.45 5.5 1 2.475 1 5.5 1 5.5-.45 5.5-1 2.475-1 5.5-1 5.5.45 5.5 1 2.475 1 5.5 1 5.5-.45 5.5-1-2.475-1-5.5-1c-4.732 0-5.5-.265-5.5-1.895 0-1.848.145-1.85 5.75-.11 10.837 3.366 20.152 4.264 38.37 3.697 9.559-.297 18.684-.864 20.279-1.261 2.065-.514 2.695-.392 2.191.424-.882 1.426 9.529 1.621 10.96.205.522-.517 3.2-1.08 5.95-1.25 4.893-.303 5-.378 4.994-3.503-.006-2.864.511-3.43 5-5.48 2.753-1.257 7.931-4.036 11.506-6.176 8.427-5.042 8.73-5.192 7.25-3.598-.688.741-1.25 2.832-1.25 4.647v3.3l-5.75-.001-5.75-.002.343 5.502.342 5.501h-5.592c-3.076 0-5.593.45-5.593 1s2.475 1 5.5 1 5.5-.45 5.5-1 2.475-1 5.5-1 5.5.45 5.5 1 2.475 1 5.5 1 5.5-.45 5.5-1 2.475-1 5.5-1 5.5.45 5.5 1 2.475 1 5.5 1 5.5-.45 5.5-1 2.475-1 5.5-1 5.5.45 5.5 1 2.475 1 5.5 1c3.354 0 5.5-.432 5.5-1.107 0-.609.596-.878 1.324-.599 1.034.397 1.224-.732.869-5.143-.251-3.108-.847-5.801-1.324-5.984-.478-.184-.869-2.771-.869-5.75V232h-11v-11h11v5.5c0 3.025.426 5.5.948 5.5.521 0 1.134 2.137 1.361 4.75s.211.25-.037-5.25c-.247-5.5-.86-10.15-1.361-10.333-.501-.184-.911-2.771-.911-5.75V210h-11v-11h11v5.5c0 3.025.426 5.5.948 5.5.521 0 1.134 2.137 1.361 4.75s.211.25-.037-5.25c-.247-5.5-.86-10.15-1.361-10.333-.501-.184-.911-2.73-.911-5.658v-5.324l-5.501-.342-5.502-.343.002 5.75L243 199h-3.432c-2.647 0-3.905.664-5.5 2.904-1.137 1.598-2.068 4.073-2.068 5.5 0 2.48.246 2.596 5.5 2.596h5.5v11h-11v-5.5c0-5.172-.146-5.5-2.454-5.5-2.326 0-2.146-.43 3.456-8.25 3.251-4.537 7.782-12.091 10.07-16.786 4.121-8.457 4.19-8.532 7.544-8.14 3.378.394 3.384.404 3.384 5.785 0 2.965.426 5.391.948 5.391.521 0 1.134 2.137 1.361 4.75s.207.25-.045-5.25-.838-10.235-1.301-10.522c-.464-.287-.982-2.987-1.153-6-.211-3.724-.71-5.398-1.56-5.228-1.568.314-1.55-.202.198-5.75l1.418-4.5.067 4.75c.037 2.613.517 4.75 1.067 4.75s1 2.55 1 5.667.27 5.396.601 5.066c1.016-1.017-.749-21.76-1.797-21.112-1.189.735.041-8.703 1.313-10.071 1.265-1.361 1.15-34.833-.117-34.05-.561.346-1-.436-1-1.781 0-2.034-2.832-14.387-4.559-19.886-.401-1.28-.049-1.543 1.518-1.133 1.736.453 2.041 1.338 2.041 5.917 0 2.96.421 5.383.937 5.383.515 0 1.12 1.238 1.344 2.75s.191-.85-.074-5.25-.87-8.15-1.344-8.333c-.475-.184-.863-2.818-.863-5.855V76.79l-3.931.375c-3.93.375-3.931.374-6.707-5.639-4.462-9.666-13.93-22.988-23.717-33.372-5.004-5.31-7.954-8.642-6.557-7.404 1.398 1.238 3.749 2.25 5.226 2.25 2.589 0 2.686-.199 2.686-5.5V22h11v11h-5.5c-5.306 0-5.5.095-5.5 2.695 0 3.668 4.571 8.305 8.187 8.305 2.578 0 2.816.313 2.845 3.75.045 5.374 1.842 7.25 6.945 7.25h4.256l-.425 6.676c-.234 3.671-.249 6.146-.033 5.5.236-.708 2.546-1.176 5.808-1.176H254v5.5c0 3.025.426 5.5.948 5.5.521 0 1.134 2.137 1.361 4.75s.211.25-.037-5.25c-.247-5.5-.86-10.15-1.361-10.333-.501-.184-.911-2.771-.911-5.75V55h-11V44h11v5.5c0 3.025.426 5.5.948 5.5.521 0 1.134 2.137 1.361 4.75s.211.25-.037-5.25c-.247-5.5-.86-10.15-1.361-10.333-.501-.184-.911-2.771-.911-5.75V33h-11V22h11v5.5c0 3.025.426 5.5.948 5.5.521 0 1.134 2.138 1.361 4.75s.211.25-.037-5.25c-.247-5.5-.86-10.15-1.361-10.333-.501-.184-.911-2.771-.911-5.75V11h-11V0h-11v11h-11V0h-11v11h-11V0h-11v5.383c0 5.047-.168 5.416-2.683 5.897-1.476.282-4.065-.146-5.752-.951-2.844-1.356-3.043-1.788-2.716-5.896L177.201 0h-5.6c-5.574 0-6.345.586-5.694 4.325.079.454-.656.587-1.632.296-.976-.292-3.95-1.064-6.608-1.715-2.97-.729-4.358-1.479-3.6-1.947.678-.42-11.458-.765-26.97-.769-20.686-.004-28.101.298-27.822 1.136.341 1.023-14.25 6.033-15.099 5.184-.179-.18.607-.624 1.749-.986C87.276 5.095 88 4.016 88 2.433 88 .146 87.665 0 82.403 0h-5.596l.346 4.99c.319 4.586.145 5.053-2.153 5.765-1.375.426-3.963.627-5.75.447-3.228-.326-3.25-.366-3.25-5.765V0H55v11H44V0H33v11H22V0H11zm243 0c0 3.025.45 5.5 1 5.5s1-2.475 1-5.5-.45-5.5-1-5.5-1 2.475-1 5.5m-85.5.5c2.749 1.181 4.328 1.181 2.5 0-.825-.533-2.175-.945-3-.914-.989.036-.819.347.5.914M11 16.5V22h11v11H11v11h11v11H11v5.383c0 4.396.339 5.472 1.849 5.867 1.44.377 3.155-1.528 7.75-8.606 10.332-15.916 24.574-29.061 46.987-43.366 1.552-.991 1.583-1.112.164-.643-1.181.391-1.75.056-1.75-1.028C66 11.326 64.885 11 60.5 11H55v11H44V11H33v11H22V11H11zm176.64-4.004c-.39 1.015.622 2.108 3.143 3.395 2.044 1.043 7.205 4.4 11.467 7.46l7.75 5.562V22h11V11h-11v11h-4.3c-5.403 0-6.7-1.297-6.7-6.7V11h-5.393c-3.866 0-5.556.424-5.967 1.496M232 16.5V22h11V11h-11zm-199 11V33H22v11h3.845C30.658 44 33 41.601 33 36.671c0-3.592.083-3.671 3.845-3.671C41.658 33 44 30.601 44 25.671V22H33zM.31 38.5c.005 3.3.192 4.529.415 2.732s.218-4.497-.01-6C.486 33.729.304 35.2.31 38.5m231.69 0V44h11V33h-11zM.31 60.5c.005 3.3.192 4.529.415 2.732s.218-4.497-.01-6C.486 55.729.304 57.2.31 60.5m121.218 7.578c-11.289 1.862-18.728 6.014-26.845 14.983-8.327 9.202-10.175 14.546-10.179 29.439-.004 11.402.154 12.333 3.161 18.68 16.667 35.182 67.166 33.949 81.952-2.002 3.137-7.627 3.008-9.469-.867-12.394-3.185-2.404-3.549-2.444-18.25-2.01-12.045.355-15.394.769-17 2.102-1.1.913-3.49 2.698-5.311 3.967-3.138 2.187-3.442 2.222-5.815.666-2.061-1.35-2.39-2.16-1.86-4.575.58-2.64.392-2.934-1.876-2.934-1.386 0-2.81-.47-3.165-1.044-.909-1.471 1.525-4.106 3.435-3.72.876.177 2.412-.704 3.415-1.957 1.002-1.254 2.667-2.279 3.699-2.279 2.088 0 4.379-2.84 11.494-14.25 2.658-4.263 5.444-7.75 6.19-7.75 2.546 0 2.554 3.106.021 7.806a7942 7942 0 0 0-5.679 10.561c-4.969 9.255-4.98 9.246 11.452 9.611 11.254.251 13.5-.382 13.5-3.802 0-1.638 1.358-3.983 3.691-6.372l3.691-3.78-1.703-3.57c-8.475-17.772-28.362-28.475-47.151-25.376m4.909 2.224C125.312 73.236 126.425 80.5 128 80.5c1.946 0 2.182-10.606.251-11.25-.688-.229-1.504.245-1.814 1.052m-20.744 4.338c-.747.747 2.363 6.36 3.523 6.36q1.652 0-.377-4.453c-1.174-2.579-1.984-3.069-3.146-1.907m41.007 2.291c-.999 1.692-1.331 3.179-.784 3.517 1.056.653 4.084-3.18 4.084-5.171 0-2.164-1.484-1.42-3.3 1.654M.31 82.5c.005 3.3.192 4.529.415 2.732s.218-4.497-.01-6C.486 77.729.304 79.2.31 82.5m5.421 2.42c-.435 1.663-.305 2.054.437 1.312.582-.582.86-1.647.62-2.369-.25-.749-.703-.295-1.057 1.057m84.739 5.128c-.369.597-.513 1.191-.32 1.321 3.777 2.547 5.853 3.435 6.31 2.696.31-.501-.76-1.855-2.378-3.007-1.949-1.388-3.168-1.728-3.612-1.01m71.282.857C159.348 92.3 157.926 95 159.596 95c1.12 0 6.404-3.43 6.404-4.157 0-1.503-1.591-1.48-4.248.062M.015 102.25c-.008 2.063.158 3.75.368 3.75.867 0 1.253-4.968.481-6.185-.531-.838-.839.045-.849 2.435m85.462 8.788c-1.248 2.018 1.126 3.09 6.133 2.772 3.542-.224 4.89-.724 4.89-1.81 0-1.872-9.926-2.738-11.023-.962M.411 128c0 9.625.15 13.563.334 8.75.183-4.812.183-12.688 0-17.5-.184-4.812-.334-.875-.334 8.75M159 130.056c0 1.608 3.039 3.872 5.25 3.912 3.648.066 2.137-1.536-4.5-4.769-.412-.201-.75.185-.75.857m-66.75.975c-2.228.896-3.134 2.969-1.297 2.969 1.668 0 6.047-2.289 6.047-3.161 0-1.053-1.835-.979-4.75.192m14.693 14.719a544 544 0 0 0-1.744 3.5c-.201.412.234.747.968.744 1.485-.007 4.982-5.512 4.076-6.418-1.104-1.103-1.931-.559-3.3 2.174m19.494-1.448c-1.125 2.934-.012 10.198 1.563 10.198 1.946 0 2.182-10.606.251-11.25-.688-.229-1.504.245-1.814 1.052m19.256-.662c-.747.747 2.363 6.36 3.523 6.36q1.652 0-.377-4.453c-1.174-2.579-1.984-3.069-3.146-1.907M.31 171.5c.005 3.3.192 4.529.415 2.732s.218-4.497-.01-6C.486 166.729.304 168.2.31 171.5m60.691 16.998c-.551 1.448-1.001 2.78-1.001 2.96 0 .513 1.578 1.096 47.454 17.535 10.975 3.933 21.389 7.75 23.144 8.483 3.146 1.315 3.199 1.29 3.809-1.759.34-1.701.275-3.412-.145-3.804-.419-.391-7.962-3.281-16.762-6.422s-23.875-8.536-33.5-11.99c-23.792-8.538-21.819-8.108-22.999-5.003m-48.751-.836c-.784.317-1.25 2.524-1.25 5.921V199h4.3c5.403 0 6.7 1.297 6.7 6.7v4.3H11v11h11v11H11v11h11v11h11v-11h11v11h11v-11h5.441c2.993 0 5.688-.4 5.99-.889s-2.146-2.495-5.441-4.457L55 234.085V243H44v-10.885l3.861-.308 3.862-.307-5.112-3.922c-2.811-2.157-4.548-3.304-3.861-2.55.688.755 1.25 2.632 1.25 4.172 0 2.727-.143 2.8-5.5 2.8H33v-5.437c0-5.327.061-5.443 3.056-5.75l3.055-.313-4.777-4.5c-2.627-2.475-4.002-3.565-3.056-2.421.947 1.143 1.722 3.281 1.722 4.75 0 2.571-.206 2.671-5.5 2.671H22v-11h6.913l-5.562-7.75c-3.06-4.262-6.424-9.437-7.477-11.5-1.053-2.062-2.018-3.714-2.144-3.671s-.792.306-1.48.583M.31 193.5c.005 3.3.192 4.529.415 2.732s.218-4.497-.01-6C.486 188.729.304 190.2.31 193.5m0 22c.005 3.3.192 4.529.415 2.732s.218-4.497-.01-6C.486 210.729.304 212.2.31 215.5m218.665 3.231c-4.111 4.252-6.1 6.502-4.42 5 4.907-4.387 6.445-3.727 6.445 2.769v5.5h-5.434c-5.027 0-5.457-.185-5.75-2.472l-.316-2.473-3.537 3.223c-1.945 1.772-3.093 2.884-2.55 2.472s2.247-.75 3.787-.75c2.727 0 2.8.143 2.8 5.5v5.5h-11v11h11v-11h11v11h11v-11h11v11h11v-11h-11v-11h-11v-11h-5.5c-6.647 0-7.211-1.64-2.304-6.702 1.758-1.814 2.984-3.298 2.725-3.298s-3.835 3.479-7.946 7.731M.31 237.5c.005 3.3.192 4.529.415 2.732s.218-4.497-.01-6C.486 232.729.304 234.2.31 237.5m21.69 0v5.5h11v-11H22zm199 0v5.5h11v-11h-11zm-155 11v5.5h11v-4.051c0-3.677-.32-4.185-3.468-5.5C67.017 241.727 66 242.274 66 248.5m93.5 4.028-4 1.318 5.083.077c3.886.059 5.084-.276 5.084-1.423 0-1.752-.776-1.749-6.167.028"/><path fill="#1976D2" fill-opacity=".234" fill-rule="evenodd" d="M109.635 1.034C52.164 10.079 8.559 54.513.892 111.844.205 116.978-.037 125.993.296 134c2.568 61.726 48.694 112.099 110.84 121.045 19.606 2.822 45.024-.363 64.436-8.074 39.293-15.609 68.862-50.739 77.411-91.971 1.198-5.775 2.591-11.882 3.097-13.571 1.265-4.221 1.197-27.429-.08-27.429-.55 0-1.001-1.237-1.001-2.75-.002-4.467-4.642-22.296-8.023-30.834-12.598-31.804-39.523-58.723-71.404-71.387C160.673 3.11 149.234.891 131.5.481c-8.8-.204-18.639.045-21.865.553m8.138 67.521c-16.388 3.972-28.924 16.411-33.24 32.98-2.025 7.773-1.935 14.557.297 22.609 3.574 12.889 11.658 22.514 24.058 28.644 6.662 3.293 8.332 3.688 17 4.012 7.474.279 10.97-.07 15.716-1.57 7.584-2.397 16.368-8.139 20.886-13.653 5.526-6.743 12.469-23.577 9.724-23.577-.519 0-2.232-1.013-3.806-2.25-2.73-2.147-3.55-2.234-17.885-1.904-14.254.328-15.125.465-17.023 2.664-1.1 1.275-3.012 2.612-4.25 2.971-1.238.36-2.25 1.073-2.25 1.586 0 1.453-3.693 1.097-5.301-.511-.84-.84-1.239-2.512-.955-4 .424-2.215.14-2.556-2.127-2.556-1.95 0-2.617-.51-2.617-2 0-1.376.667-2 2.135-2 1.175 0 3.178-1.125 4.453-2.5 1.274-1.375 3.18-2.5 4.236-2.5 1.343 0 3.941-3.152 8.653-10.5 6.203-9.674 8.526-11.922 9.945-9.625.298.481-2.151 5.843-5.441 11.916s-5.734 11.69-5.43 12.482c.413 1.075 3.389 1.609 11.751 2.109 6.159.368 12.639.38 14.4.028 2.912-.583 3.149-.905 2.618-3.558-.497-2.485.021-3.474 3.502-6.688l4.085-3.771-2.47-5.331c-3.156-6.812-13.283-16.809-20.473-20.209-10.216-4.833-19.623-5.86-30.191-3.298M127 74.441c0 3.057.45 5.559 1 5.559s1-2.223 1-4.941-.45-5.219-1-5.559c-.621-.384-1 1.49-1 4.941M107.182 77.5c.626 1.375 1.507 2.5 1.957 2.5s.306-1.125-.321-2.5c-.626-1.375-1.507-2.5-1.957-2.5s-.306 1.125.321 2.5m39.819-.002c-1.924 3.595-.732 4.009 1.358.471.965-1.633 1.355-2.969.867-2.969-.489 0-1.49 1.124-2.225 2.498m20.611.321c-.279.451.82.624 2.441.387 1.621-.238 2.947-.607 2.947-.819 0-.762-4.893-.37-5.388.432m-2.048 2.474c.376.986.935 1.541 1.243 1.233s.001-1.114-.683-1.793c-.988-.98-1.102-.865-.56.56m-95.149 5.845c-.434.702-.292.904.355.504.593-.366 1.285.127 1.538 1.096.411 1.575.472 1.583.576.071.145-2.12-1.503-3.235-2.469-1.671m-3.46 5.435c-1.774 2.87-1.958 3.805-.935 4.75.985.91 1.111.89.556-.091-.394-.698.252-2.835 1.435-4.75S69.938 88 69.663 88s-1.494 1.608-2.708 3.573M90 90.474c0 .261 1.35 1.173 3 2.026s3 1.162 3 .686-1.146-1.387-2.547-2.025C90.663 89.889 90 89.758 90 90.474m71.662 1.144c-1.562.846-2.632 1.745-2.38 1.998.668.667 5.718-1.785 5.718-2.777 0-1.051.068-1.067-3.338.779M69.1 94.295c-1.265 2.107-1.243 2.128.479.479.991-.95 1.587-1.942 1.324-2.205s-1.074.514-1.803 1.726m102.65 9.367c.688.278 1.813.278 2.5 0 .688-.277.125-.504-1.25-.504s-1.937.227-1.25.504M177.5 105c.995 1.1 2.035 2 2.31 2s-.315-.9-1.31-2-2.035-2-2.31-2 .315.9 1.31 2m-9.393.371c-.876 1.056-.657 1.916.958 3.75l2.095 2.379-1.551-2.432c-1.144-1.793-1.265-2.778-.458-3.75.602-.725.869-1.318.594-1.318s-1.012.617-1.638 1.371M85 112c0 .55 2.475 1 5.5 1s5.5-.45 5.5-1-2.475-1-5.5-1-5.5.45-5.5 1M.392 128c0 7.425.157 10.463.35 6.75s.192-9.787 0-13.5c-.193-3.713-.35-.675-.35 6.75m177.049-.445c-1.864 1.494-1.852 1.512.309.465 1.238-.6 2.25-1.3 2.25-1.555 0-.765-.519-.544-2.559 1.09m6.642-1.272c.23.156 1.317.943 2.417 1.75 1.85 1.357 1.897 1.336.628-.283-.755-.963-1.843-1.75-2.417-1.75s-.857.127-.628.283m-91.421 5.335c-1.562.846-2.632 1.745-2.38 1.998.668.667 5.718-1.785 5.718-2.777 0-1.051.068-1.067-3.338.779M159 130.474c0 .261 1.35 1.173 3 2.026s3 1.162 3 .686-1.146-1.387-2.547-2.025c-2.79-1.272-3.453-1.403-3.453-.687m24.014 6.94c.648.648 1.324.648 1.972 0 .647-.647.309-.985-.986-.985s-1.633.338-.986.985m-75.832 9.086c-.627 1.375-.771 2.5-.321 2.5s1.331-1.125 1.957-2.5.771-2.5.321-2.5-1.331 1.125-1.957 2.5M127 149.559c0 3.451.379 5.325 1 4.941.55-.34 1-2.841 1-5.559s-.45-4.941-1-4.941-1 2.502-1 5.559m19-4.993c0 .311.466 1.436 1.035 2.5 1.539 2.874 3.122 2.372 1.783-.566-1.008-2.213-2.818-3.455-2.818-1.934m-85.372 43.697c-.753 1.78-1.089 3.516-.748 3.857.571.571 65.124 24.001 71.36 25.9 2.502.762 2.816.558 3.603-2.343.854-3.144-.053-5.677-2.032-5.677-.794 0-48.524-16.774-65.563-23.042l-5.253-1.932z"/><path fill="#1976D2" fill-opacity=".339" fill-rule="evenodd" d="M114 1.109C70.328 6.057 31.868 33.24 12.992 72.5c-22.75 47.317-14.221 104.07 21.366 142.176l6.987 7.482 1.595-3.329c.878-1.831 4.019-8.85 6.981-15.598 4.439-10.113 5.695-12.17 7.152-11.708 1.338.425 2.078-.299 3.048-2.981.704-1.948 1.797-3.542 2.428-3.542s1.93-1.735 2.886-3.855l1.738-3.855-4.586-9.557C60.064 162.478 58 157.871 58 157.496s-2.7-7.384-6-15.577-6-15.394-6-16.002c0-.609 2.532-5.227 5.627-10.262A4884 4884 0 0 0 64.375 94.75C68.292 88.287 72.013 83 72.645 83c2.156 0 7 6.659 8.349 11.478 1.521 5.433.704 11.1-3.518 24.395l-2.345 7.384 1.946 4.937c3.028 7.685 8.025 14.781 14.844 21.083 10.73 9.916 21.746 14.135 36.672 14.044 17.595-.107 32.841-7.754 43.015-21.575l4.35-5.909-1.979-3.878c-1.089-2.134-1.979-4.677-1.979-5.651s2.558-4.134 5.685-7.021c3.128-2.887 5.38-5.555 5.007-5.929-.374-.373-1.505.068-2.515.981-1.009.914-2.983 1.661-4.387 1.661-2.211 0-2.713.636-3.747 4.75-5.457 21.692-28.907 37.249-50.558 33.54-17.903-3.066-32.462-15.944-37.007-32.731-2.63-9.717-1.709-21.934 2.321-30.797 3.453-7.591 11.359-16.598 17.973-20.474 16.892-9.899 39.722-7.716 53.604 5.126 2.131 1.973 4.044 3.586 4.25 3.586s.374-1.025.374-2.277.677-3.244 1.504-4.425c1.414-2.018 1.279-2.331-2.25-5.25-2.065-1.707-5.911-4.182-8.547-5.5l-4.793-2.395 12.729-14.077C173.483 34.982 174.62 34 177.936 34.004c6.332.006 13.084 6.056 13.055 11.696-.006.99-4.315 6.525-9.577 12.3l-9.567 10.5 4.713.561c6.24.743 10.44 5.126 10.44 10.896 0 2.159-.422 4.185-.937 4.504-.817.505-4.063 6.251-4.063 7.193 0 .19.745.346 1.655.346s3.385 1.819 5.5 4.042c4.51 4.742 5.091 9.401 1.838 14.738-1.873 3.072-1.889 3.315-.247 3.824 6.001 1.861 11.254 7.527 11.254 12.137 0 1.346-3.764 9.042-8.364 17.103s-8.701 15.781-9.112 17.156c-.954 3.19-5.808 11.907-10.633 19.095-8.679 12.931-21.581 23.858-32.826 27.8l-5.435 1.906-.156 7.389c-.138 6.579-1.568 14.773-4.532 25.972-.533 2.014-1.355 5.726-1.827 8.25-.799 4.278-.714 4.588 1.264 4.585 5.536-.007 21.087-2.393 29.776-4.567 43.525-10.893 79.386-46.156 90.947-89.43 3.784-14.162 7.178-42 5.121-42-.515 0-1.226-3.126-1.581-6.947C249.908 62.122 209.833 16.505 159 4.187 143.378.401 128.955-.585 114 1.109m55.222 91.875c2.123 4.29 2.511 4.294 7.778.067l2.5-2.007-4.691-.022c-2.58-.012-4.969-.472-5.309-1.022s-.985-1-1.434-1 .072 1.793 1.156 3.984m-42.426 12.836c-1.465.585-1.36.842.749 1.836 2.313 1.089 4.527.082 3.055-1.389-.33-.33-.6-.049-.6.625s-.457.943-1.016.598c-.559-.346-.758-1.047-.441-1.559.648-1.048.61-1.051-1.747-.111M122 109c-.589 1.1-.845 2-.57 2s.981-.9 1.57-2 .845-2 .57-2-.981.9-1.57 2m11.079.583c.048 1.165.285 1.402.604.605.289-.722.253-1.585-.079-1.917s-.568.258-.525 1.312m.4 4.482c-.785 2.473-4.641 4.201-5.714 2.559-.462-.707-.74-.475-.75.626-.008.963.68 1.75 1.53 1.75 1.74 0 6.455-4.349 6.455-5.955 0-1.731-.823-1.18-1.521 1.02m-10.841 2.159c.275.445.881.573 1.346.286s1.073.043 1.352.734c.315.782.536.619.585-.432.05-1.074-.623-1.635-1.852-1.542-1.062.08-1.706.509-1.431.954M.336 128c0 4.125.177 5.813.392 3.75s.216-5.437 0-7.5c-.215-2.062-.392-.375-.392 3.75"/></svg>